<?xml version="1.0" standalone="no"?>
<!DOCTYPE svg PUBLIC "-//W3C//DTD SVG 20010904//EN"
 "http://www.w3.org/TR/2001/REC-SVG-20010904/DTD/svg10.dtd">
<svg version="1.0" xmlns="http://www.w3.org/2000/svg"
 width="100.000000pt" height="100.000000pt" viewBox="0 0 100.000000 100.000000"
 preserveAspectRatio="xMidYMid meet">

<g transform="translate(0.000000,100.000000) scale(0.100000,-0.100000)"
fill="#000000" stroke="none">
<path d="M189 911 c-39 -40 -39 -82 0 -122 20 -20 39 -29 61 -29 22 0 41 9 61
29 39 40 39 82 0 122 -40 39 -82 39 -122 0z"/>
<path d="M224 692 c-32 -21 -33 -47 -3 -187 37 -175 44 -184 155 -196 44 -4
84 -8 91 -8 10 -1 163 -203 163 -216 0 -13 -59 -3 -93 15 l-37 20 -37 -20
c-48 -25 -98 -25 -146 0 l-37 20 -37 -20 c-48 -26 -93 -25 -145 1 -27 14 -44
17 -50 11 -15 -15 0 -32 46 -53 51 -23 93 -24 146 -3 37 15 43 15 80 0 51 -20
89 -20 140 0 37 15 43 15 80 0 51 -20 89 -20 140 0 37 15 43 15 80 0 53 -21
95 -20 146 3 46 21 61 38 46 53 -6 6 -23 3 -50 -11 -23 -12 -56 -21 -73 -21
-33 0 -119 37 -119 51 0 16 -122 234 -137 246 -9 7 -51 24 -94 38 -49 17 -80
33 -83 43 -6 21 -36 151 -36 158 0 2 58 4 129 4 76 0 132 4 136 10 4 6 68 10
161 10 147 0 154 1 154 20 0 19 -7 20 -154 20 -93 0 -157 4 -161 10 -7 12
-384 14 -401 2z"/>
</g>
</svg>
