<?xml version="1.0" standalone="no"?>
<!DOCTYPE svg PUBLIC "-//W3C//DTD SVG 20010904//EN"
 "http://www.w3.org/TR/2001/REC-SVG-20010904/DTD/svg10.dtd">
<svg version="1.0" xmlns="http://www.w3.org/2000/svg"
 width="512.000000pt" height="512.000000pt" viewBox="0 0 512.000000 512.000000"
 preserveAspectRatio="xMidYMid meet">

<g transform="translate(0.000000,512.000000) scale(0.100000,-0.100000)"
fill="#000000" stroke="none">
<path d="M25 3535 c-22 -21 -25 -32 -25 -102 1 -157 85 -256 229 -270 47 -5
62 -11 94 -42 l38 -36 -65 -6 c-90 -8 -150 -46 -189 -119 l-28 -54 3 -401 3
-400 32 -66 c49 -100 157 -192 263 -224 14 -4 57 -40 95 -79 210 -213 526
-236 755 -55 l49 39 1246 0 1246 0 49 -39 c204 -162 484 -161 696 0 l51 39
252 0 252 0 24 25 c40 39 30 96 -21 123 -21 11 -22 20 -27 204 -5 207 -18 280
-72 402 -89 202 -272 379 -476 462 -128 52 -218 64 -508 64 l-263 0 -112 82
c-247 183 -520 335 -676 378 -68 18 -104 20 -426 20 -270 0 -372 -4 -440 -15
-70 -12 -176 -50 -499 -180 -225 -90 -444 -171 -485 -180 -51 -11 -143 -18
-285 -22 l-210 -5 -50 52 c-37 39 -46 54 -35 58 31 10 106 98 118 138 6 23 12
74 12 113 0 63 -3 75 -25 96 l-24 25 -271 0 -271 0 -24 -25z m455 -144 c0 -23
-15 -43 -41 -56 -34 -18 -196 -21 -232 -4 -21 9 -47 46 -47 64 0 3 72 5 160 5
90 0 160 -4 160 -9z m2408 -82 c113 -27 369 -167 584 -320 l97 -69 -40 -38
-41 -37 -750 71 c-412 40 -752 74 -754 77 -7 7 75 127 122 177 26 28 70 65 98
84 93 61 114 65 389 66 148 0 267 -4 295 -11z m-952 -93 c-55 -68 -121 -178
-146 -245 -22 -57 -16 -90 22 -115 17 -10 256 -37 868 -95 465 -45 851 -81
858 -81 8 0 39 25 70 56 96 98 102 99 422 99 272 0 276 -1 355 -27 254 -86
441 -298 491 -554 8 -45 14 -136 14 -225 l0 -149 -105 0 c-58 0 -105 2 -105 3
0 2 10 30 21 63 32 85 32 243 2 339 -50 158 -180 298 -331 356 -317 120 -665
-61 -748 -390 -22 -87 -15 -234 14 -313 l20 -58 -1133 0 -1134 0 21 58 c18 47
22 79 22 182 0 113 -2 132 -27 194 -151 383 -634 487 -921 200 -105 -106 -161
-240 -161 -391 0 -51 -3 -93 -6 -93 -12 0 -59 77 -69 111 -6 19 -10 186 -10
385 0 286 3 354 14 370 14 18 34 19 398 25 483 8 459 3 948 202 195 80 361
146 368 146 7 1 -8 -23 -32 -53z m-968 -706 c114 -27 224 -116 278 -225 26
-55 29 -69 29 -165 0 -93 -3 -111 -27 -163 -15 -31 -50 -82 -79 -112 -189
-200 -519 -152 -644 94 -76 151 -46 341 73 460 100 100 238 141 370 111z
m3367 -28 c204 -96 291 -343 190 -543 -125 -246 -455 -294 -644 -94 -29 30
-64 81 -79 112 -24 52 -27 70 -27 163 0 98 2 109 33 172 35 72 112 151 179
183 113 55 240 57 348 7z"/>
<path d="M3317 2578 c-14 -13 -62 -85 -106 -160 -85 -142 -119 -179 -188 -204
-30 -10 -180 -13 -741 -14 l-704 0 -29 -29 c-31 -32 -35 -50 -17 -84 25 -48 3
-46 754 -47 687 0 714 1 778 20 64 20 136 66 182 118 14 15 63 91 111 170 97
160 104 190 59 229 -34 29 -68 29 -99 1z"/>
<path d="M795 2426 c-95 -30 -162 -88 -204 -176 -21 -44 -26 -70 -26 -131 0
-67 4 -84 35 -145 99 -195 351 -234 506 -80 88 88 122 228 69 281 -33 33 -70
32 -106 -4 -21 -21 -29 -39 -29 -64 0 -41 -33 -93 -80 -125 -29 -20 -44 -23
-88 -20 -31 3 -64 13 -80 24 -32 24 -72 98 -72 134 0 75 83 159 158 160 72 0
108 85 57 135 -27 28 -74 32 -140 11z"/>
<path d="M4074 2426 c-229 -72 -299 -362 -130 -532 157 -156 419 -111 512 89
57 125 33 217 -57 217 -29 0 -69 -44 -69 -77 0 -39 -39 -112 -72 -137 -16 -11
-49 -21 -80 -24 -61 -4 -106 19 -145 77 -61 90 2 222 112 237 57 8 82 23 96
55 9 22 9 36 0 58 -21 49 -83 63 -167 37z"/>
</g>
</svg>
